<mxfile host="app.diagrams.net" agent="Mozilla/5.0 (Windows NT 10.0; Win64; x64; rv:137.0) Gecko/20100101 Firefox/137.0" version="26.2.12">
  <diagram name="Page-1" id="CthTKVDl6EhoKNDK8EQh">
    <mxGraphModel dx="1695" dy="2140" grid="1" gridSize="10" guides="1" tooltips="1" connect="1" arrows="1" fold="1" page="1" pageScale="1" pageWidth="827" pageHeight="1169" math="0" shadow="0">
      <root>
        <mxCell id="0" />
        <mxCell id="1" parent="0" />
        <mxCell id="PCQdMZKiTnh8M8kMI2ME-5" value="Server" style="swimlane;fontStyle=1;align=center;verticalAlign=top;childLayout=stackLayout;horizontal=1;startSize=26;horizontalStack=0;resizeParent=1;resizeParentMax=0;resizeLast=0;collapsible=1;marginBottom=0;whiteSpace=wrap;html=1;fillColor=#f8cecc;strokeColor=light-dark(#000000, #d7817e);strokeWidth=2;" vertex="1" parent="1">
          <mxGeometry x="1160" y="260" width="230" height="122" as="geometry" />
        </mxCell>
        <mxCell id="PCQdMZKiTnh8M8kMI2ME-6" value="&lt;div&gt;+ tasks : BlockingQueue&amp;lt;Task&amp;gt;&lt;/div&gt;&lt;div&gt;+ waitingPeriod : AtomicInteger&lt;/div&gt;&lt;div&gt;+ running : boolean&lt;/div&gt;" style="text;strokeColor=light-dark(#000000, #d7817e);fillColor=#f8cecc;align=left;verticalAlign=top;spacingLeft=4;spacingRight=4;overflow=hidden;rotatable=0;points=[[0,0.5],[1,0.5]];portConstraint=eastwest;whiteSpace=wrap;html=1;strokeWidth=2;" vertex="1" parent="PCQdMZKiTnh8M8kMI2ME-5">
          <mxGeometry y="26" width="230" height="54" as="geometry" />
        </mxCell>
        <mxCell id="PCQdMZKiTnh8M8kMI2ME-8" value="&lt;div&gt;+ run(): void&lt;/div&gt;&lt;div&gt;+ getters() and setters()&lt;/div&gt;" style="text;strokeColor=light-dark(#000000, #d7817e);fillColor=#f8cecc;align=left;verticalAlign=top;spacingLeft=4;spacingRight=4;overflow=hidden;rotatable=0;points=[[0,0.5],[1,0.5]];portConstraint=eastwest;whiteSpace=wrap;html=1;strokeWidth=2;" vertex="1" parent="PCQdMZKiTnh8M8kMI2ME-5">
          <mxGeometry y="80" width="230" height="42" as="geometry" />
        </mxCell>
        <mxCell id="PCQdMZKiTnh8M8kMI2ME-9" value="AlertController" style="swimlane;fontStyle=1;align=center;verticalAlign=top;childLayout=stackLayout;horizontal=1;startSize=26;horizontalStack=0;resizeParent=1;resizeParentMax=0;resizeLast=0;collapsible=1;marginBottom=0;whiteSpace=wrap;html=1;fillColor=#dae8fc;strokeColor=light-dark(#000000, #5c79a3);strokeWidth=2;" vertex="1" parent="1">
          <mxGeometry x="490" y="-220" width="160" height="52" as="geometry" />
        </mxCell>
        <mxCell id="PCQdMZKiTnh8M8kMI2ME-12" value="+ showAlert() : void" style="text;strokeColor=light-dark(#000000, #5c79a3);fillColor=#dae8fc;align=left;verticalAlign=top;spacingLeft=4;spacingRight=4;overflow=hidden;rotatable=0;points=[[0,0.5],[1,0.5]];portConstraint=eastwest;whiteSpace=wrap;html=1;strokeWidth=2;" vertex="1" parent="PCQdMZKiTnh8M8kMI2ME-9">
          <mxGeometry y="26" width="160" height="26" as="geometry" />
        </mxCell>
        <mxCell id="PCQdMZKiTnh8M8kMI2ME-13" value="Task" style="swimlane;fontStyle=1;align=center;verticalAlign=top;childLayout=stackLayout;horizontal=1;startSize=26;horizontalStack=0;resizeParent=1;resizeParentMax=0;resizeLast=0;collapsible=1;marginBottom=0;whiteSpace=wrap;html=1;fillColor=#f8cecc;strokeColor=light-dark(#000000, #d7817e);strokeWidth=2;" vertex="1" parent="1">
          <mxGeometry x="1160" y="470" width="160" height="122" as="geometry" />
        </mxCell>
        <mxCell id="PCQdMZKiTnh8M8kMI2ME-14" value="&lt;div&gt;+ id : int&lt;/div&gt;&lt;div&gt;+ arrivalTime : int&lt;/div&gt;&lt;div&gt;+ serviceTime : int&lt;/div&gt;" style="text;strokeColor=light-dark(#000000, #d7817e);fillColor=#f8cecc;align=left;verticalAlign=top;spacingLeft=4;spacingRight=4;overflow=hidden;rotatable=0;points=[[0,0.5],[1,0.5]];portConstraint=eastwest;whiteSpace=wrap;html=1;strokeWidth=2;" vertex="1" parent="PCQdMZKiTnh8M8kMI2ME-13">
          <mxGeometry y="26" width="160" height="54" as="geometry" />
        </mxCell>
        <mxCell id="PCQdMZKiTnh8M8kMI2ME-16" value="&lt;div&gt;+ toString() : String&lt;/div&gt;&lt;div&gt;+ getters() and setters()&lt;/div&gt;" style="text;strokeColor=light-dark(#000000, #d7817e);fillColor=#f8cecc;align=left;verticalAlign=top;spacingLeft=4;spacingRight=4;overflow=hidden;rotatable=0;points=[[0,0.5],[1,0.5]];portConstraint=eastwest;whiteSpace=wrap;html=1;strokeWidth=2;" vertex="1" parent="PCQdMZKiTnh8M8kMI2ME-13">
          <mxGeometry y="80" width="160" height="42" as="geometry" />
        </mxCell>
        <mxCell id="PCQdMZKiTnh8M8kMI2ME-17" value="FileLogController" style="swimlane;fontStyle=1;align=center;verticalAlign=top;childLayout=stackLayout;horizontal=1;startSize=26;horizontalStack=0;resizeParent=1;resizeParentMax=0;resizeLast=0;collapsible=1;marginBottom=0;whiteSpace=wrap;html=1;fillColor=#dae8fc;strokeColor=light-dark(#000000, #5c79a3);strokeWidth=2;" vertex="1" parent="1">
          <mxGeometry x="840" y="-298" width="160" height="78" as="geometry" />
        </mxCell>
        <mxCell id="PCQdMZKiTnh8M8kMI2ME-18" value="+ logtextArea : TextArea" style="text;strokeColor=light-dark(#000000, #5c79a3);fillColor=#dae8fc;align=left;verticalAlign=top;spacingLeft=4;spacingRight=4;overflow=hidden;rotatable=0;points=[[0,0.5],[1,0.5]];portConstraint=eastwest;whiteSpace=wrap;html=1;strokeWidth=2;" vertex="1" parent="PCQdMZKiTnh8M8kMI2ME-17">
          <mxGeometry y="26" width="160" height="26" as="geometry" />
        </mxCell>
        <mxCell id="PCQdMZKiTnh8M8kMI2ME-20" value="+ initialize() : void" style="text;strokeColor=light-dark(#000000, #5c79a3);fillColor=#dae8fc;align=left;verticalAlign=top;spacingLeft=4;spacingRight=4;overflow=hidden;rotatable=0;points=[[0,0.5],[1,0.5]];portConstraint=eastwest;whiteSpace=wrap;html=1;strokeWidth=2;" vertex="1" parent="PCQdMZKiTnh8M8kMI2ME-17">
          <mxGeometry y="52" width="160" height="26" as="geometry" />
        </mxCell>
        <mxCell id="PCQdMZKiTnh8M8kMI2ME-21" value="SimulationFrameController" style="swimlane;fontStyle=1;align=center;verticalAlign=top;childLayout=stackLayout;horizontal=1;startSize=26;horizontalStack=0;resizeParent=1;resizeParentMax=0;resizeLast=0;collapsible=1;marginBottom=0;whiteSpace=wrap;html=1;fillColor=#dae8fc;strokeColor=light-dark(#000000, #5c79a3);strokeWidth=2;" vertex="1" parent="1">
          <mxGeometry x="800" y="-172" width="200" height="172" as="geometry" />
        </mxCell>
        <mxCell id="PCQdMZKiTnh8M8kMI2ME-22" value="&lt;div&gt;+ selectionPolicy : SelectionPolicy&lt;/div&gt;&lt;div&gt;+ simulateBtn : Button&lt;/div&gt;&lt;div&gt;+ textFIelds&lt;/div&gt;&lt;div&gt;+ strategyChoiceBox : ChoiceBox&lt;/div&gt;" style="text;strokeColor=light-dark(#000000, #5c79a3);fillColor=#dae8fc;align=left;verticalAlign=top;spacingLeft=4;spacingRight=4;overflow=hidden;rotatable=0;points=[[0,0.5],[1,0.5]];portConstraint=eastwest;whiteSpace=wrap;html=1;strokeWidth=2;" vertex="1" parent="PCQdMZKiTnh8M8kMI2ME-21">
          <mxGeometry y="26" width="200" height="74" as="geometry" />
        </mxCell>
        <mxCell id="PCQdMZKiTnh8M8kMI2ME-24" value="&lt;div&gt;+ initialize() : void&lt;/div&gt;&lt;div&gt;+ onSimulateBtnClick() : void&lt;/div&gt;&lt;div&gt;+ checkFields() : boolean&lt;/div&gt;&lt;div&gt;+ handleStrategyChange() : void&lt;/div&gt;" style="text;strokeColor=light-dark(#000000, #5c79a3);fillColor=#dae8fc;align=left;verticalAlign=top;spacingLeft=4;spacingRight=4;overflow=hidden;rotatable=0;points=[[0,0.5],[1,0.5]];portConstraint=eastwest;whiteSpace=wrap;html=1;strokeWidth=2;" vertex="1" parent="PCQdMZKiTnh8M8kMI2ME-21">
          <mxGeometry y="100" width="200" height="72" as="geometry" />
        </mxCell>
        <mxCell id="PCQdMZKiTnh8M8kMI2ME-25" value="Constants" style="swimlane;fontStyle=1;align=center;verticalAlign=top;childLayout=stackLayout;horizontal=1;startSize=26;horizontalStack=0;resizeParent=1;resizeParentMax=0;resizeLast=0;collapsible=1;marginBottom=0;whiteSpace=wrap;html=1;fillColor=#ffe6cc;strokeColor=light-dark(#000000, #996500);strokeWidth=2;" vertex="1" parent="1">
          <mxGeometry x="1161" y="-150" width="160" height="66" as="geometry" />
        </mxCell>
        <mxCell id="PCQdMZKiTnh8M8kMI2ME-26" value="&lt;div&gt;+ SLEEP_TIME : int&lt;/div&gt;&lt;div&gt;+ FILE_NAME : String&lt;/div&gt;" style="text;strokeColor=light-dark(#000000, #996500);fillColor=#ffe6cc;align=left;verticalAlign=top;spacingLeft=4;spacingRight=4;overflow=hidden;rotatable=0;points=[[0,0.5],[1,0.5]];portConstraint=eastwest;whiteSpace=wrap;html=1;strokeWidth=2;" vertex="1" parent="PCQdMZKiTnh8M8kMI2ME-25">
          <mxGeometry y="26" width="160" height="40" as="geometry" />
        </mxCell>
        <mxCell id="PCQdMZKiTnh8M8kMI2ME-29" value="QueueStrategy" style="swimlane;fontStyle=1;align=center;verticalAlign=top;childLayout=stackLayout;horizontal=1;startSize=26;horizontalStack=0;resizeParent=1;resizeParentMax=0;resizeLast=0;collapsible=1;marginBottom=0;whiteSpace=wrap;html=1;fillColor=#d5e8d4;strokeColor=default;strokeWidth=2;" vertex="1" parent="1">
          <mxGeometry x="700" y="478" width="290" height="52" as="geometry" />
        </mxCell>
        <mxCell id="PCQdMZKiTnh8M8kMI2ME-32" value="+ addTask(List&amp;lt;Server&amp;gt;, Task) : AtomicInteger" style="text;strokeColor=default;fillColor=#d5e8d4;align=left;verticalAlign=top;spacingLeft=4;spacingRight=4;overflow=hidden;rotatable=0;points=[[0,0.5],[1,0.5]];portConstraint=eastwest;whiteSpace=wrap;html=1;strokeWidth=2;" vertex="1" parent="PCQdMZKiTnh8M8kMI2ME-29">
          <mxGeometry y="26" width="290" height="26" as="geometry" />
        </mxCell>
        <mxCell id="PCQdMZKiTnh8M8kMI2ME-33" value="TimeStrategy" style="swimlane;fontStyle=1;align=center;verticalAlign=top;childLayout=stackLayout;horizontal=1;startSize=26;horizontalStack=0;resizeParent=1;resizeParentMax=0;resizeLast=0;collapsible=1;marginBottom=0;whiteSpace=wrap;html=1;fillColor=#d5e8d4;strokeColor=default;strokeWidth=2;" vertex="1" parent="1">
          <mxGeometry x="340" y="478" width="290" height="52" as="geometry" />
        </mxCell>
        <mxCell id="PCQdMZKiTnh8M8kMI2ME-36" value="+ addTask(List&amp;lt;Server&amp;gt;, Task) : AtomicInteger" style="text;strokeColor=default;fillColor=#d5e8d4;align=left;verticalAlign=top;spacingLeft=4;spacingRight=4;overflow=hidden;rotatable=0;points=[[0,0.5],[1,0.5]];portConstraint=eastwest;whiteSpace=wrap;html=1;strokeWidth=2;" vertex="1" parent="PCQdMZKiTnh8M8kMI2ME-33">
          <mxGeometry y="26" width="290" height="26" as="geometry" />
        </mxCell>
        <mxCell id="PCQdMZKiTnh8M8kMI2ME-37" value="SimulationManager" style="swimlane;fontStyle=1;align=center;verticalAlign=top;childLayout=stackLayout;horizontal=1;startSize=26;horizontalStack=0;resizeParent=1;resizeParentMax=0;resizeLast=0;collapsible=1;marginBottom=0;whiteSpace=wrap;html=1;fillColor=#d5e8d4;strokeColor=#000000;strokeWidth=2;" vertex="1" parent="1">
          <mxGeometry x="345" y="50" width="260" height="222" as="geometry" />
        </mxCell>
        <mxCell id="PCQdMZKiTnh8M8kMI2ME-38" value="&lt;div&gt;+ timeLimti : int&lt;/div&gt;&lt;div&gt;+ numberOfServers : int&lt;/div&gt;&lt;div&gt;+ numberOfClients : int&lt;/div&gt;&lt;div&gt;+ minArrivalTime : int&lt;/div&gt;&lt;div&gt;+ maxArrivaleTime : int&lt;/div&gt;&lt;div&gt;+ minServiceTime : int&lt;/div&gt;&lt;div&gt;+ maxServiceTime : int&lt;/div&gt;" style="text;strokeColor=#000000;fillColor=#d5e8d4;align=left;verticalAlign=top;spacingLeft=4;spacingRight=4;overflow=hidden;rotatable=0;points=[[0,0.5],[1,0.5]];portConstraint=eastwest;whiteSpace=wrap;html=1;strokeWidth=2;" vertex="1" parent="PCQdMZKiTnh8M8kMI2ME-37">
          <mxGeometry y="26" width="260" height="114" as="geometry" />
        </mxCell>
        <mxCell id="PCQdMZKiTnh8M8kMI2ME-40" value="&lt;div&gt;+ run() : void&lt;/div&gt;&lt;div&gt;+ generateNRandomTasks() : void&lt;/div&gt;&lt;div&gt;+ getAverageServiceTime(List&amp;lt;Task&amp;gt;) : float&lt;/div&gt;&lt;div&gt;+ getRunningState() : boolean&lt;/div&gt;&lt;div&gt;- stopSimulation() : void&lt;/div&gt;" style="text;strokeColor=#000000;fillColor=#d5e8d4;align=left;verticalAlign=top;spacingLeft=4;spacingRight=4;overflow=hidden;rotatable=0;points=[[0,0.5],[1,0.5]];portConstraint=eastwest;whiteSpace=wrap;html=1;strokeWidth=2;" vertex="1" parent="PCQdMZKiTnh8M8kMI2ME-37">
          <mxGeometry y="140" width="260" height="82" as="geometry" />
        </mxCell>
        <mxCell id="PCQdMZKiTnh8M8kMI2ME-41" value="Strategy «interface»" style="swimlane;fontStyle=1;align=center;verticalAlign=top;childLayout=stackLayout;horizontal=1;startSize=26;horizontalStack=0;resizeParent=1;resizeParentMax=0;resizeLast=0;collapsible=1;marginBottom=0;whiteSpace=wrap;html=1;fillColor=#d5e8d4;strokeColor=#000000;strokeWidth=2;" vertex="1" parent="1">
          <mxGeometry x="530" y="330" width="290" height="52" as="geometry" />
        </mxCell>
        <mxCell id="PCQdMZKiTnh8M8kMI2ME-44" value="+ addTask(List&amp;lt;Server&amp;gt;, Task): AtomicInteger" style="text;strokeColor=#000000;fillColor=#d5e8d4;align=left;verticalAlign=top;spacingLeft=4;spacingRight=4;overflow=hidden;rotatable=0;points=[[0,0.5],[1,0.5]];portConstraint=eastwest;whiteSpace=wrap;html=1;strokeWidth=2;" vertex="1" parent="PCQdMZKiTnh8M8kMI2ME-41">
          <mxGeometry y="26" width="290" height="26" as="geometry" />
        </mxCell>
        <mxCell id="PCQdMZKiTnh8M8kMI2ME-45" value="Scheduler" style="swimlane;fontStyle=1;align=center;verticalAlign=top;childLayout=stackLayout;horizontal=1;startSize=26;horizontalStack=0;resizeParent=1;resizeParentMax=0;resizeLast=0;collapsible=1;marginBottom=0;whiteSpace=wrap;html=1;fillColor=#d5e8d4;strokeColor=default;strokeWidth=2;" vertex="1" parent="1">
          <mxGeometry x="790" y="50" width="230" height="142" as="geometry" />
        </mxCell>
        <mxCell id="PCQdMZKiTnh8M8kMI2ME-46" value="&lt;div&gt;+ servers : List&amp;lt;Server&amp;gt;&lt;/div&gt;&lt;div&gt;+ maxNoServers : int&lt;/div&gt;&lt;div&gt;+ strategy : Strategy&lt;/div&gt;" style="text;strokeColor=default;fillColor=#d5e8d4;align=left;verticalAlign=top;spacingLeft=4;spacingRight=4;overflow=hidden;rotatable=0;points=[[0,0.5],[1,0.5]];portConstraint=eastwest;whiteSpace=wrap;html=1;strokeWidth=2;" vertex="1" parent="PCQdMZKiTnh8M8kMI2ME-45">
          <mxGeometry y="26" width="230" height="54" as="geometry" />
        </mxCell>
        <mxCell id="PCQdMZKiTnh8M8kMI2ME-48" value="&lt;div&gt;+ changeStr&lt;span style=&quot;white-space: pre;&quot;&gt;ategy(SelectionPolicy) : void&lt;/span&gt;&lt;/div&gt;&lt;div&gt;&lt;span style=&quot;white-space: pre;&quot;&gt;+ dispatchTask(Task) : AtomicInteger&lt;/span&gt;&lt;/div&gt;&lt;div&gt;&lt;span style=&quot;white-space: pre;&quot;&gt;+ getters() and setters()&lt;/span&gt;&lt;/div&gt;" style="text;strokeColor=default;fillColor=#d5e8d4;align=left;verticalAlign=top;spacingLeft=4;spacingRight=4;overflow=hidden;rotatable=0;points=[[0,0.5],[1,0.5]];portConstraint=eastwest;whiteSpace=wrap;html=1;strokeWidth=2;" vertex="1" parent="PCQdMZKiTnh8M8kMI2ME-45">
          <mxGeometry y="80" width="230" height="62" as="geometry" />
        </mxCell>
        <mxCell id="PCQdMZKiTnh8M8kMI2ME-53" value="«interface»&lt;br&gt;&lt;b&gt;Runnable&lt;/b&gt;" style="html=1;whiteSpace=wrap;fillColor=#fff2cc;strokeColor=light-dark(#000000, #6d5100);strokeWidth=2;" vertex="1" parent="1">
          <mxGeometry x="1160" y="96" width="110" height="50" as="geometry" />
        </mxCell>
        <mxCell id="PCQdMZKiTnh8M8kMI2ME-54" value="«enum»&lt;br&gt;&lt;b&gt;SelectionPolicy&lt;/b&gt;" style="html=1;whiteSpace=wrap;fillColor=#e1d5e7;strokeColor=light-dark(#000000, #9577a3);strokeWidth=2;" vertex="1" parent="1">
          <mxGeometry x="1160" y="-20" width="110" height="50" as="geometry" />
        </mxCell>
        <mxCell id="PCQdMZKiTnh8M8kMI2ME-56" value="" style="endArrow=block;dashed=1;endFill=0;endSize=12;html=1;rounded=0;exitX=0.5;exitY=0;exitDx=0;exitDy=0;entryX=0.448;entryY=0.923;entryDx=0;entryDy=0;entryPerimeter=0;" edge="1" parent="1" source="PCQdMZKiTnh8M8kMI2ME-33" target="PCQdMZKiTnh8M8kMI2ME-44">
          <mxGeometry width="160" relative="1" as="geometry">
            <mxPoint x="510" y="430" as="sourcePoint" />
            <mxPoint x="670" y="430" as="targetPoint" />
          </mxGeometry>
        </mxCell>
        <mxCell id="PCQdMZKiTnh8M8kMI2ME-57" value="" style="endArrow=block;dashed=1;endFill=0;endSize=12;html=1;rounded=0;exitX=0.532;exitY=-0.038;exitDx=0;exitDy=0;exitPerimeter=0;entryX=0.553;entryY=0.923;entryDx=0;entryDy=0;entryPerimeter=0;" edge="1" parent="1" source="PCQdMZKiTnh8M8kMI2ME-29" target="PCQdMZKiTnh8M8kMI2ME-44">
          <mxGeometry width="160" relative="1" as="geometry">
            <mxPoint x="910" y="410" as="sourcePoint" />
            <mxPoint x="1070" y="410" as="targetPoint" />
          </mxGeometry>
        </mxCell>
        <mxCell id="PCQdMZKiTnh8M8kMI2ME-60" value="" style="endArrow=diamondThin;endFill=1;endSize=24;html=1;rounded=0;entryX=0.5;entryY=1;entryDx=0;entryDy=0;exitX=0.5;exitY=0;exitDx=0;exitDy=0;" edge="1" parent="1" source="PCQdMZKiTnh8M8kMI2ME-41" target="PCQdMZKiTnh8M8kMI2ME-45">
          <mxGeometry width="160" relative="1" as="geometry">
            <mxPoint x="870" y="240" as="sourcePoint" />
            <mxPoint x="1030" y="240" as="targetPoint" />
          </mxGeometry>
        </mxCell>
        <mxCell id="PCQdMZKiTnh8M8kMI2ME-61" value="" style="endArrow=diamondThin;endFill=0;endSize=24;html=1;rounded=0;entryX=0.995;entryY=0.421;entryDx=0;entryDy=0;exitX=-0.004;exitY=0.889;exitDx=0;exitDy=0;exitPerimeter=0;entryPerimeter=0;" edge="1" parent="1" source="PCQdMZKiTnh8M8kMI2ME-46" target="PCQdMZKiTnh8M8kMI2ME-38">
          <mxGeometry width="160" relative="1" as="geometry">
            <mxPoint x="650" y="190" as="sourcePoint" />
            <mxPoint x="810" y="190" as="targetPoint" />
          </mxGeometry>
        </mxCell>
        <mxCell id="PCQdMZKiTnh8M8kMI2ME-64" value="Use" style="endArrow=open;endSize=12;dashed=1;html=1;rounded=0;exitX=1;exitY=1;exitDx=0;exitDy=0;entryX=0;entryY=0.5;entryDx=0;entryDy=0;" edge="1" parent="1" source="PCQdMZKiTnh8M8kMI2ME-45" target="PCQdMZKiTnh8M8kMI2ME-5">
          <mxGeometry width="160" relative="1" as="geometry">
            <mxPoint x="1120" y="150" as="sourcePoint" />
            <mxPoint x="1280" y="150" as="targetPoint" />
          </mxGeometry>
        </mxCell>
        <mxCell id="PCQdMZKiTnh8M8kMI2ME-65" value="Use" style="endArrow=open;endSize=12;dashed=1;html=1;rounded=0;entryX=0;entryY=0;entryDx=0;entryDy=0;exitX=1;exitY=1;exitDx=0;exitDy=0;" edge="1" parent="1" source="PCQdMZKiTnh8M8kMI2ME-45" target="PCQdMZKiTnh8M8kMI2ME-13">
          <mxGeometry width="160" relative="1" as="geometry">
            <mxPoint x="1000" y="240" as="sourcePoint" />
            <mxPoint x="1170" y="331" as="targetPoint" />
          </mxGeometry>
        </mxCell>
        <mxCell id="PCQdMZKiTnh8M8kMI2ME-66" value="Use" style="endArrow=open;endSize=12;dashed=1;html=1;rounded=0;exitX=1;exitY=1;exitDx=0;exitDy=0;entryX=0;entryY=0.25;entryDx=0;entryDy=0;" edge="1" parent="1" source="PCQdMZKiTnh8M8kMI2ME-41" target="PCQdMZKiTnh8M8kMI2ME-13">
          <mxGeometry width="160" relative="1" as="geometry">
            <mxPoint x="850" y="272" as="sourcePoint" />
            <mxPoint x="990" y="401" as="targetPoint" />
          </mxGeometry>
        </mxCell>
        <mxCell id="PCQdMZKiTnh8M8kMI2ME-67" value="Use" style="endArrow=open;endSize=12;dashed=1;html=1;rounded=0;exitX=1;exitY=1;exitDx=0;exitDy=0;entryX=0.004;entryY=0;entryDx=0;entryDy=0;entryPerimeter=0;" edge="1" parent="1" source="PCQdMZKiTnh8M8kMI2ME-41" target="PCQdMZKiTnh8M8kMI2ME-8">
          <mxGeometry width="160" relative="1" as="geometry">
            <mxPoint x="920" y="240" as="sourcePoint" />
            <mxPoint x="1160" y="320" as="targetPoint" />
          </mxGeometry>
        </mxCell>
        <mxCell id="PCQdMZKiTnh8M8kMI2ME-68" value="" style="endArrow=block;dashed=1;endFill=0;endSize=12;html=1;rounded=0;exitX=0.404;exitY=0;exitDx=0;exitDy=0;exitPerimeter=0;" edge="1" parent="1" target="PCQdMZKiTnh8M8kMI2ME-53">
          <mxGeometry width="160" relative="1" as="geometry">
            <mxPoint x="1215.6200000000001" y="260" as="sourcePoint" />
            <mxPoint x="1214.3299999999997" y="154.6500000000001" as="targetPoint" />
          </mxGeometry>
        </mxCell>
        <mxCell id="PCQdMZKiTnh8M8kMI2ME-69" value="" style="endArrow=block;dashed=1;endFill=0;endSize=12;html=1;rounded=0;exitX=1;exitY=0.5;exitDx=0;exitDy=0;entryX=0;entryY=0.5;entryDx=0;entryDy=0;" edge="1" parent="1" source="PCQdMZKiTnh8M8kMI2ME-45" target="PCQdMZKiTnh8M8kMI2ME-53">
          <mxGeometry width="160" relative="1" as="geometry">
            <mxPoint x="1060" y="100" as="sourcePoint" />
            <mxPoint x="1235" y="2" as="targetPoint" />
          </mxGeometry>
        </mxCell>
        <mxCell id="PCQdMZKiTnh8M8kMI2ME-70" value="Use" style="endArrow=open;endSize=12;dashed=1;html=1;rounded=0;exitX=1.01;exitY=0.84;exitDx=0;exitDy=0;exitPerimeter=0;entryX=0;entryY=1;entryDx=0;entryDy=0;" edge="1" parent="1" source="PCQdMZKiTnh8M8kMI2ME-46" target="PCQdMZKiTnh8M8kMI2ME-54">
          <mxGeometry width="160" relative="1" as="geometry">
            <mxPoint x="1330" y="50" as="sourcePoint" />
            <mxPoint x="1490" y="50" as="targetPoint" />
          </mxGeometry>
        </mxCell>
        <mxCell id="PCQdMZKiTnh8M8kMI2ME-71" value="Use" style="endArrow=open;endSize=12;dashed=1;html=1;rounded=0;exitX=1;exitY=0.5;exitDx=0;exitDy=0;entryX=0;entryY=0.5;entryDx=0;entryDy=0;" edge="1" parent="1" source="PCQdMZKiTnh8M8kMI2ME-24" target="PCQdMZKiTnh8M8kMI2ME-54">
          <mxGeometry width="160" relative="1" as="geometry">
            <mxPoint x="1032" y="131" as="sourcePoint" />
            <mxPoint x="1170" y="40" as="targetPoint" />
          </mxGeometry>
        </mxCell>
        <mxCell id="PCQdMZKiTnh8M8kMI2ME-72" value="Use" style="endArrow=open;endSize=12;dashed=1;html=1;rounded=0;exitX=1;exitY=0.75;exitDx=0;exitDy=0;entryX=0;entryY=0.5;entryDx=0;entryDy=0;" edge="1" parent="1" source="PCQdMZKiTnh8M8kMI2ME-17" target="PCQdMZKiTnh8M8kMI2ME-25">
          <mxGeometry width="160" relative="1" as="geometry">
            <mxPoint x="1042" y="141" as="sourcePoint" />
            <mxPoint x="1180" y="50" as="targetPoint" />
          </mxGeometry>
        </mxCell>
        <mxCell id="PCQdMZKiTnh8M8kMI2ME-73" value="Use" style="endArrow=open;endSize=12;dashed=1;html=1;rounded=0;exitX=-0.002;exitY=1.054;exitDx=0;exitDy=0;exitPerimeter=0;entryX=1;entryY=0.5;entryDx=0;entryDy=0;" edge="1" parent="1" source="PCQdMZKiTnh8M8kMI2ME-22" target="PCQdMZKiTnh8M8kMI2ME-12">
          <mxGeometry width="160" relative="1" as="geometry">
            <mxPoint x="580" y="-50" as="sourcePoint" />
            <mxPoint x="740" y="-50" as="targetPoint" />
          </mxGeometry>
        </mxCell>
        <mxCell id="PCQdMZKiTnh8M8kMI2ME-74" value="Use" style="endArrow=open;endSize=12;dashed=1;html=1;rounded=0;exitX=0;exitY=0.5;exitDx=0;exitDy=0;entryX=1;entryY=0.25;entryDx=0;entryDy=0;" edge="1" parent="1" source="PCQdMZKiTnh8M8kMI2ME-17" target="PCQdMZKiTnh8M8kMI2ME-9">
          <mxGeometry width="160" relative="1" as="geometry">
            <mxPoint x="730" y="-280" as="sourcePoint" />
            <mxPoint x="890" y="-280" as="targetPoint" />
          </mxGeometry>
        </mxCell>
      </root>
    </mxGraphModel>
  </diagram>
</mxfile>
